<?xml version="1.0" encoding="UTF-8"?>
<svg id="_图层_1" data-name="图层 1" xmlns="http://www.w3.org/2000/svg" viewBox="0 0 136.32 136.4">
  <defs>
    <style>
      .cls-1 {
        fill: #d81e06;
      }
    </style>
  </defs>
  <path class="cls-1" d="M136.16,68.48v44.08c0,8.8-7.2,17.68-14.32,21.28-4,2-8.24,2.56-12.72,2.56-27.92-.08-55.92-.08-83.84-.08C11.44,136.32-.08,123.68,0,111.04,.16,82.24,.08,53.44,.08,24.56,.08,15.2,6.72,6.32,14.88,2.48c3.76-1.76,7.68-2.48,11.84-2.48,28.24,.08,56.48,.08,84.72,.08,9.68,0,18.4,6.56,22.4,14.72,1.84,3.76,2.48,7.68,2.48,11.84-.24,14-.16,27.92-.16,41.84h0Zm-50.16-15.2c.16,0,.64,.08,1.04,.08,.4,.08,.8,.08,1.12,.32,6.8,3.6,11.92,9.04,13.52,16.56,1.92,9.2,.08,17.84-6.24,25.2-10.16,11.84-28.96,14.72-42.72,7.52-14.96-7.76-24-27.6-17.44-44.72,3.36-8.8,8.56-15.84,17.12-20.16,2.24-1.12,4.64-2.16,6.72-3.6,2.8-1.92,3.28-5.04,1.6-7.84-1.44-2.48-4.8-3.6-7.44-2.56-15.28,6-25.36,16.64-30.48,32.4-3.76,11.68-2.4,22.8,2.32,33.76,3.36,7.68,8.48,14,15.28,19.2,5.6,4.24,11.68,7.12,18.32,8.64,10.64,2.4,21.04,.96,31.04-3.52,17.76-7.92,29.76-28.4,23.36-49.04-3.44-11.04-10.72-18.56-21.12-23.12-3.36-1.44-7.04-2.16-10.88-3.2-.32-2.48-.88-5.2-1.04-7.92-.16-3.44,3.2-5.52,6.32-4.08,1.6,.72,3.12,1.76,4.64,2.64,4.24,2.48,8.16,1.52,9.76-2.56,.88-2.32-.16-5.92-2.8-7.52-2.88-1.76-6.08-3.04-9.2-4.4-7.2-3.2-16.56,2-20.24,8.48-2.48,4.32-1.84,9.04-.64,13.6,.4,1.68,1.6,3.52-.88,4.64-1.2,.56-2.4,1.04-3.6,1.6-10.8,4.64-17.28,18.88-14.16,30.56,2.72,10.08,14.8,18.56,25.28,14.96,6.64-2.24,15.2-10.24,14.24-18.8-.48-5.6-1.76-11.28-2.8-17.12h0Zm0,0"/>
  <path class="cls-1" d="M72.96,53.28c1.2,5.68,2.72,11.36,3.6,17.12,.56,3.52-2.08,6.24-5.84,7.36-2.72,.8-6.48-.8-8-3.68-4.4-8.32,.08-18.56,10.24-20.8h0Zm0,0"/>
</svg>